<?xml version="1.0" encoding="utf-8"?>
<?xml-stylesheet type="text/xsl" href="rss1.xsl"?>
<rss version="2.0" xmlns:atom="http://www.w3.org/2005/Atom" xmlns:content="http://purl.org/rss/1.0/modules/content/" xmlns:dc="http://purl.org/dc/elements/1.1/" xmlns:media="http://search.yahoo.com/mrss/">
<channel>
 <title>Getty</title>
 <link>http://www.gettyimg.com/</link>
 <atom:link href="http://www.gettyimg.com/" rel="self" type="application/rss+xml" />

 
                <item>
                <title><![CDATA[【MASTER &amp; MASTER RIP】MASTER - Jisoo (Blackpink) -  Flower [RE UPLOAD Master 4K] (H.264/MP4)]]></title>
                <link><![CDATA[https://sharemania.us/threads/jisoo-blackpink-flower-re-upload-master-4k-h-264-mp4.236557/]]></link>
                <description><![CDATA[<article>
<blockquote class="messageText SelectQuoteContainer ugc baseHtml">
BIG THANKS to RESPECTIVE OWNERS <br>
<br>
<img src="https://i.imgur.com/W2jv23n.jpeg" class="bbCodeImage LbImage" alt="[​IMG]" data-url="https://i.imgur.com/W2jv23n.jpeg" style=""> <br>
<br>
<div class="bbCodeBlock bbCodeVfcHH HiddenContent">
<div class="attribution type">Hidden Content:</div>
<blockquote>You must reply before you can see the hidden data contained here.</blockquote>
</div>
<div class="messageTextEndMarker">&nbsp;</div>
</blockquote>
</article>]]></description>
                <author><![CDATA[Kim Min Jeong]]></author>
                </item>

                
                <item>
                <title><![CDATA[【PRORES HD】Jennifer Lopez Feat. Pitbull - Live It Up (1080p LPCM ProRes)]]></title>
                <link><![CDATA[https://sharemania.us/threads/jennifer-lopez-feat-pitbull-live-it-up-1080p-lpcm-prores.236558/]]></link>
                <description><![CDATA[<article>
<blockquote class="messageText SelectQuoteContainer ugc baseHtml">
<div style="text-align: center"><img src="https://i.imgur.com/0af5K3b.png" class="bbCodeImage LbImage" alt="[​IMG]" data-url="https://i.imgur.com/0af5K3b.png" style=""> <br>
<br>
​</div>
<div class="ToggleTriggerAnchor bbCodeSpoilerContainer">
<button type="button" class="button bbCodeSpoilerButton ToggleTrigger Tooltip JsOnly" data-target="> .SpoilerTarget"><span>Spoiler: <span class="SpoilerTitle">Media Info</span></span></button>
<div class="SpoilerTarget bbCodeSpoilerText"><div style="text-align: left">General<br>
Format : MPEG-4<br>
Format profile : QuickTime<br>
Codec ID : qt 2005.03 (qt )<br>
File size : 5.37 GiB<br>
Duration : 4 min 35 s<br>
Overall bit rate mode : Variable<br>
Overall bit rate : 167 Mb/s<br>
Encoded date : UTC 2016-12-23 10:13:03<br>
Tagged date : UTC 2016-12-23 10:18:26<br>
Writing library : Apple QuickTime<br>
<br>
Video<br>
ID : 1<br>
Format : ProRes<br>
Format version : Version 0<br>
Format profile : 422 HQ<br>
Codec ID : apch<br>
Duration : 4 min 35 s<br>
Bit rate mode : Variable<br>
Bit rate : 165 Mb/s<br>
Width : 1 920 pixels<br>
Height : 1 080 pixels<br>
Display aspect ratio : 16:9<br>
Frame rate mode : Constant<br>
Frame rate : 23.976 (24000/1001) FPS<br>
Color space : YUV<br>
Chroma subsampling : 4:2:2<br>
Scan type : Progressive<br>
Bits/(Pixel*Frame) : 3.320<br>
Stream size : 5.30 GiB (99%)<br>
Writing library : arh0<br>
Language : English<br>
Encoded date : UTC 2016-12-23 10:13:03<br>
Tagged date : UTC 2016-12-23 10:18:26<br>
Color primaries : BT.709<br>
Transfer characteristics : BT.709<br>
Matrix coefficients : BT.709<br>
<br>
Audio<br>
ID : 2<br>
Format : PCM<br>
Format settings : Little / Signed<br>
Codec ID : in24<br>
Duration : 4 min 35 s<br>
Bit rate mode : Constant<br>
Bit rate : 2 304 kb/s<br>
Channel(s) : 2 channels<br>
Channel layout : L R<br>
Sampling rate : 48.0 kHz<br>
Bit depth : 24 bits<br>
Stream size : 75.7 MiB (1%)<br>
Language : English<br>
Encoded date : UTC 2016-12-23 10:13:03<br>
Tagged date : UTC 2016-12-23 10:18:27​</div></div>
</div><br>
Download<br>
<div class="bbCodeBlock bbCodeVfcHH HiddenContent">
<div class="attribution type">Hidden Content:</div>
<blockquote>You must reply before you can see the hidden data contained here.</blockquote>
</div>
<div class="messageTextEndMarker">&nbsp;</div>
</blockquote>
</article>]]></description>
                <author><![CDATA[theslothsidd]]></author>
                </item>

                
                <item>
                <title><![CDATA[【Requests】[REQ VID] - Jennifer Lopez - New Year's Rockin' Eve 2010 and WMA 2010 HD]]></title>
                <link><![CDATA[https://sharemania.us/threads/jennifer-lopez-new-years-rockin-eve-2010-and-wma-2010-hd.236556/]]></link>
                <description><![CDATA[<article>
<blockquote class="messageText SelectQuoteContainer ugc baseHtml">
Hello, everyone! Hope you all are doing good. I need to find some performances by JLO. These are:<br>
Jennifer Lopez - World Music Awards 2010 HD<br>
Jennifer Lopez - New Year's Rockin' Eve 2010 HD<br>
Jennifer Lopez - Waiting for tonight (Neighborhood Sessions) HD<br>
Jennifer Lopez - We Day 2014 HD<br>
<br>
If you have one of them, can you please share them?
<div class="messageTextEndMarker">&nbsp;</div>
</blockquote>
</article>]]></description>
                <author><![CDATA[Sam Jones]]></author>
                </item>

                </channel></rss>